<?xml version="1.0" encoding="utf-8" standalone="no"?>
<!DOCTYPE svg PUBLIC "-//W3C//DTD SVG 1.1//EN" "http://www.w3.org/Graphics/SVG/1.1/DTD/svg11.dtd">
<svg xmlns="http://www.w3.org/2000/svg" xmlns:xl="http://www.w3.org/1999/xlink" version="1.1" viewBox="34 25 2333 1278" width="2333pt" height="1278pt" xmlns:dc="http://purl.org/dc/elements/1.1/"><metadata> Produced by OmniGraffle 6.0.3 <dc:date>2017-08-02 11:38Z</dc:date></metadata><defs><marker orient="auto" overflow="visible" markerUnits="strokeWidth" id="FilledArrow_Marker" viewBox="-1 -3 6 6" markerWidth="6" markerHeight="6" color="#992727"><g><path d="M 3.7333333 0 L 0 -1.4 L 0 1.4 Z" fill="currentColor" stroke="currentColor" stroke-width="1"/></g></marker><marker orient="auto" overflow="visible" markerUnits="strokeWidth" id="FilledArrow_Marker_2" viewBox="-5 -3 6 6" markerWidth="6" markerHeight="6" color="#992727"><g><path d="M -3.7333333 0 L 0 1.4 L 0 -1.4 Z" fill="currentColor" stroke="currentColor" stroke-width="1"/></g></marker></defs><g stroke="none" stroke-opacity="1" stroke-dasharray="none" fill="none" fill-opacity="1"><title>Canvas 1</title><g><title>Layer 1</title><rect x="686.25" y="127.125" width="726.75" height="39.375" fill="white"/><rect x="686.25" y="127.125" width="726.75" height="39.375" stroke="black" stroke-linecap="round" stroke-linejoin="round" stroke-width="1"/><rect x="1806" y="54" width="552" height="272" id="path"/><clipPath id="clip_path"><use xl:href="#path"/></clipPath><g clip-path="url(#clip_path)"><image xl:href="image1.png" width="552" height="272" transform="translate(1806 54)"/></g><rect x="670.5" y="34.875" width="1001" height="477" id="path_2"/><clipPath id="clip_path_2"><use xl:href="#path_2"/></clipPath><g clip-path="url(#clip_path_2)"><image xl:href="image2.png" width="1001" height="477" transform="translate(670.5 34.875)"/></g><rect x="1278" y="576" width="889" height="718" id="path_3"/><clipPath id="clip_path_3"><use xl:href="#path_3"/></clipPath><g clip-path="url(#clip_path_3)"><image xl:href="image3.png" width="889" height="718" transform="translate(1278 576)"/></g><rect x="43" y="585" width="1145" height="238" id="path_4"/><clipPath id="clip_path_4"><use xl:href="#path_4"/></clipPath><g clip-path="url(#clip_path_4)"><image xl:href="image4.png" width="1145" height="238" transform="translate(43 585)"/></g><path d="M 315.0044 580.41604 C 315.0044 580.1423 314.10113 572.1575 338.19743 571.41945 C 362.29364 570.68132 398.39753 572.20214 402.06306 570.5594 C 405.72878 568.91654 404.81246 567 404.81246 567 C 404.81246 567 405.64714 570.6486 399.39684 571.2146 C 393.1469 571.78065 350.3942 571.08386 332.98249 572.4528 C 315.5706 573.82186 315.0044 580.68988 315.0044 580.41604 Z" fill="black"/><path d="M 315.0044 580.41604 C 315.0044 580.1423 314.10113 572.1575 338.19743 571.41945 C 362.29364 570.68132 398.39753 572.20214 402.06306 570.5594 C 405.72878 568.91654 404.81246 567 404.81246 567 C 404.81246 567 405.64714 570.6486 399.39684 571.2146 C 393.1469 571.78065 350.3942 571.08386 332.98249 572.4528 C 315.5706 573.82186 315.0044 580.68988 315.0044 580.41604 Z" stroke="black" stroke-linecap="round" stroke-linejoin="round" stroke-width="1"/><path d="M 494.9956 580.41604 C 494.9956 580.1423 495.89887 572.1575 471.80257 571.41945 C 447.70636 570.68132 411.60247 572.20214 407.93694 570.5594 C 404.27122 568.91654 405.18754 567 405.18754 567 C 405.18754 567 404.35286 570.6486 410.60316 571.2146 C 416.8531 571.78065 459.6058 571.08386 477.0175 572.4528 C 494.4294 573.82186 494.9956 580.68988 494.9956 580.41604 Z" fill="black"/><path d="M 494.9956 580.41604 C 494.9956 580.1423 495.89887 572.1575 471.80257 571.41945 C 447.70636 570.68132 411.60247 572.20214 407.93694 570.5594 C 404.27122 568.91654 405.18754 567 405.18754 567 C 405.18754 567 404.35286 570.6486 410.60316 571.2146 C 416.8531 571.78065 459.6058 571.08386 477.0175 572.4528 C 494.4294 573.82186 494.9956 580.68988 494.9956 580.41604 Z" stroke="black" stroke-linecap="round" stroke-linejoin="round" stroke-width="1"/><path d="M 531.00573 584.99204 C 531.00573 584.7183 529.83147 576.7335 561.15665 575.99545 C 592.48174 575.25732 639.4168 576.77814 644.182 575.1354 C 648.9474 573.49254 647.7562 571.576 647.7562 571.576 C 647.7562 571.576 648.84128 575.2246 640.7159 575.7906 C 632.59097 576.35665 577.01246 575.65986 554.37724 577.0288 C 531.74177 578.39786 531.00573 585.26588 531.00573 584.99204 Z" fill="black"/><path d="M 531.00573 584.99204 C 531.00573 584.7183 529.83147 576.7335 561.15665 575.99545 C 592.48174 575.25732 639.4168 576.77814 644.182 575.1354 C 648.9474 573.49254 647.7562 571.576 647.7562 571.576 C 647.7562 571.576 648.84128 575.2246 640.7159 575.7906 C 632.59097 576.35665 577.01246 575.65986 554.37724 577.0288 C 531.74177 578.39786 531.00573 585.26588 531.00573 584.99204 Z" stroke="black" stroke-linecap="round" stroke-linejoin="round" stroke-width="1"/><path d="M 764.99427 584.99204 C 764.99427 584.7183 766.16853 576.7335 734.84335 575.99545 C 703.51826 575.25732 656.5832 576.77814 651.818 575.1354 C 647.0526 573.49254 648.2438 571.576 648.2438 571.576 C 648.2438 571.576 647.15872 575.2246 655.2841 575.7906 C 663.40903 576.35665 718.98754 575.65986 741.62276 577.0288 C 764.25823 578.39786 764.99427 585.26588 764.99427 584.99204 Z" fill="black"/><path d="M 764.99427 584.99204 C 764.99427 584.7183 766.16853 576.7335 734.84335 575.99545 C 703.51826 575.25732 656.5832 576.77814 651.818 575.1354 C 647.0526 573.49254 648.2438 571.576 648.2438 571.576 C 648.2438 571.576 647.15872 575.2246 655.2841 575.7906 C 663.40903 576.35665 718.98754 575.65986 741.62276 577.0288 C 764.25823 578.39786 764.99427 585.26588 764.99427 584.99204 Z" stroke="black" stroke-linecap="round" stroke-linejoin="round" stroke-width="1"/><path d="M 819.00374 580.41604 C 819.00374 580.1423 818.23596 572.1575 838.7178 571.41945 C 859.1996 570.68132 889.8879 572.20214 893.0036 570.5594 C 896.11946 568.91654 895.3406 567 895.3406 567 C 895.3406 567 896.05007 570.6486 890.7373 571.2146 C 885.42486 571.78065 849.08507 571.08386 834.2851 572.4528 C 819.485 573.82186 819.00374 580.68988 819.00374 580.41604 Z" fill="black"/><path d="M 819.00374 580.41604 C 819.00374 580.1423 818.23596 572.1575 838.7178 571.41945 C 859.1996 570.68132 889.8879 572.20214 893.0036 570.5594 C 896.11946 568.91654 895.3406 567 895.3406 567 C 895.3406 567 896.05007 570.6486 890.7373 571.2146 C 885.42486 571.78065 849.08507 571.08386 834.2851 572.4528 C 819.485 573.82186 819.00374 580.68988 819.00374 580.41604 Z" stroke="black" stroke-linecap="round" stroke-linejoin="round" stroke-width="1"/><path d="M 971.99626 580.41604 C 971.99626 580.1423 972.76404 572.1575 952.2822 571.41945 C 931.8004 570.68132 901.1121 572.20214 897.9964 570.5594 C 894.88054 568.91654 895.6594 567 895.6594 567 C 895.6594 567 894.94993 570.6486 900.2627 571.2146 C 905.57514 571.78065 941.9149 571.08386 956.7149 572.4528 C 971.515 573.82186 971.99626 580.68988 971.99626 580.41604 Z" fill="black"/><path d="M 971.99626 580.41604 C 971.99626 580.1423 972.76404 572.1575 952.2822 571.41945 C 931.8004 570.68132 901.1121 572.20214 897.9964 570.5594 C 894.88054 568.91654 895.6594 567 895.6594 567 C 895.6594 567 894.94993 570.6486 900.2627 571.2146 C 905.57514 571.78065 941.9149 571.08386 956.7149 572.4528 C 971.515 573.82186 971.99626 580.68988 971.99626 580.41604 Z" stroke="black" stroke-linecap="round" stroke-linejoin="round" stroke-width="1"/><path d="M 1035.0024 584.99204 C 1035.0024 584.7183 1034.5056 576.7335 1047.7586 575.99545 C 1061.0115 575.25732 1080.86864 576.77814 1082.8847 575.1354 C 1084.9008 573.49254 1084.39685 571.576 1084.39685 571.576 C 1084.39685 571.576 1084.8559 575.2246 1081.41826 575.7906 C 1077.9808 576.35665 1054.4668 575.65986 1044.8904 577.0288 C 1035.3138 578.39786 1035.0024 585.26588 1035.0024 584.99204 Z" fill="black"/><path d="M 1035.0024 584.99204 C 1035.0024 584.7183 1034.5056 576.7335 1047.7586 575.99545 C 1061.0115 575.25732 1080.86864 576.77814 1082.8847 575.1354 C 1084.9008 573.49254 1084.39685 571.576 1084.39685 571.576 C 1084.39685 571.576 1084.8559 575.2246 1081.41826 575.7906 C 1077.9808 576.35665 1054.4668 575.65986 1044.8904 577.0288 C 1035.3138 578.39786 1035.0024 585.26588 1035.0024 584.99204 Z" stroke="black" stroke-linecap="round" stroke-linejoin="round" stroke-width="1"/><path d="M 1133.9976 584.99204 C 1133.9976 584.7183 1134.4944 576.7335 1121.2414 575.99545 C 1107.9885 575.25732 1088.13136 576.77814 1086.1153 575.1354 C 1084.0992 573.49254 1084.60315 571.576 1084.60315 571.576 C 1084.60315 571.576 1084.1441 575.2246 1087.58174 575.7906 C 1091.0192 576.35665 1114.5332 575.65986 1124.1096 577.0288 C 1133.6862 578.39786 1133.9976 585.26588 1133.9976 584.99204 Z" fill="black"/><path d="M 1133.9976 584.99204 C 1133.9976 584.7183 1134.4944 576.7335 1121.2414 575.99545 C 1107.9885 575.25732 1088.13136 576.77814 1086.1153 575.1354 C 1084.0992 573.49254 1084.60315 571.576 1084.60315 571.576 C 1084.60315 571.576 1084.1441 575.2246 1087.58174 575.7906 C 1091.0192 576.35665 1114.5332 575.65986 1124.1096 577.0288 C 1133.6862 578.39786 1133.9976 585.26588 1133.9976 584.99204 Z" stroke="black" stroke-linecap="round" stroke-linejoin="round" stroke-width="1"/><path d="M 1033.1 148.5 L 896 148.5 L 896 553.1" marker-end="url(#FilledArrow_Marker)" marker-start="url(#FilledArrow_Marker_2)" stroke="#992727" stroke-linecap="round" stroke-linejoin="round" stroke-width="3"/><path d="M 1033.1 108 L 406.125 108 L 406.125 551.1" marker-end="url(#FilledArrow_Marker)" marker-start="url(#FilledArrow_Marker_2)" stroke="#992727" stroke-linecap="round" stroke-linejoin="round" stroke-width="3"/><path d="M 1038.1 245 L 648 245 L 648 564.524" marker-end="url(#FilledArrow_Marker)" marker-start="url(#FilledArrow_Marker_2)" stroke="#992727" stroke-linecap="round" stroke-linejoin="round" stroke-width="3"/><path d="M 1253.9 190.125 L 1731 190.125 L 1731 256 L 1731 266 L 1811.1 266" marker-end="url(#FilledArrow_Marker)" marker-start="url(#FilledArrow_Marker_2)" stroke="#992727" stroke-linecap="round" stroke-linejoin="round" stroke-width="3"/><path d="M 1033.1 190.125 L 1012 190.125 L 1012 534 L 1012 543 L 1065 543 L 1084 543 L 1084 555.676" marker-end="url(#FilledArrow_Marker)" marker-start="url(#FilledArrow_Marker_2)" stroke="#992727" stroke-linecap="round" stroke-linejoin="round" stroke-width="3"/><path d="M 1251.9 101.25 L 1328 101.25 L 1328 768.46276" marker-end="url(#FilledArrow_Marker)" marker-start="url(#FilledArrow_Marker_2)" stroke="#992727" stroke-linecap="round" stroke-linejoin="round" stroke-width="3"/><path d="M 1253.9 200.25 L 1367 200.25 L 1367 716.1" marker-end="url(#FilledArrow_Marker)" marker-start="url(#FilledArrow_Marker_2)" stroke="#992727" stroke-linecap="round" stroke-linejoin="round" stroke-width="3"/><path d="M 1253.9 148.5 L 1315 148.5 L 1315 777 L 1315 793 L 1321.1 793" marker-end="url(#FilledArrow_Marker)" marker-start="url(#FilledArrow_Marker_2)" stroke="#992727" stroke-linecap="round" stroke-linejoin="round" stroke-width="3"/><path d="M 1253.9 237 L 1288 237 L 1288 796.625 L 1288 812.625 L 1321.1 812.625" marker-end="url(#FilledArrow_Marker)" marker-start="url(#FilledArrow_Marker_2)" stroke="#992727" stroke-linecap="round" stroke-linejoin="round" stroke-width="3"/><path d="M 1118.9 375 L 1267.375 375 L 1267.375 832 L 1267.375 848 L 1321.1 848" marker-end="url(#FilledArrow_Marker)" marker-start="url(#FilledArrow_Marker_2)" stroke="#992727" stroke-linecap="round" stroke-linejoin="round" stroke-width="3"/></g></g></svg>
