<svg xmlns="http://www.w3.org/2000/svg" xmlns:xlink="http://www.w3.org/1999/xlink" width="1141.47" height="1200"><g transform="translate(-18.525 -60)"><path d="M216 385c0-2.76 2.24-5 5-5h150c2.76 0 5 2.24 5 5v70c0 2.76-2.24 5-5 5H221c-2.76 0-5-2.24-5-5z" stroke="#666" stroke-width="2" fill="#fff"/><use xlink:href="#a" transform="matrix(1,0,0,1,216,379.99999999999994) translate(18.124999999999993 22)"/><use xlink:href="#b" transform="matrix(1,0,0,1,216,379.99999999999994) translate(80.975 22)"/><use xlink:href="#c" transform="matrix(1,0,0,1,216,379.99999999999994) translate(125.92500000000001 22)"/><use xlink:href="#d" transform="matrix(1,0,0,1,216,379.99999999999994) translate(44.55 43.6)"/><use xlink:href="#e" transform="matrix(1,0,0,1,216,379.99999999999994) translate(34.599999999999994 65.2)"/><path d="M291.76 222.65c2.34-1.46 6.14-1.46 8.48 0l71.52 44.7c2.34 1.46 2.34 3.84 0 5.3l-71.52 44.7c-2.34 1.46-6.14 1.46-8.48 0l-71.52-44.7c-2.34-1.46-2.34-3.84 0-5.3z" stroke="#666" stroke-width="2" fill="#fff"/><use xlink:href="#f" transform="matrix(1,0,0,1,216,220) translate(47.574999999999996 42.8)"/><use xlink:href="#g" transform="matrix(1,0,0,1,216,220) translate(39.074999999999996 64.4)"/><path d="M344 80c17.67 0 32 17.9 32 40s-14.33 40-32 40h-96c-17.67 0-32-17.9-32-40s14.33-40 32-40z" stroke="#666" stroke-width="2" fill="#83bbe5"/><use xlink:href="#h" transform="matrix(1,0,0,1,216,80) translate(55.599999999999994 43.6)"/><path d="M296 160v60.57" stroke="#999" stroke-width="2" fill="none"/><path d="M296 220.57l-4.64-14.27h9.28z" fill="#999"/><path d="M296.7 221.64l-.96-.08-.45.06-5.3-16.32h12zm-3.96-14.34l3.26 10.03 3.26-10.03z" fill="#999"/><path d="M627.76 142.65c2.34-1.46 6.14-1.46 8.48 0l71.52 44.7c2.34 1.46 2.34 3.84 0 5.3l-71.52 44.7c-2.34 1.46-6.14 1.46-8.48 0l-71.52-44.7c-2.34-1.46-2.34-3.84 0-5.3z" stroke="#666" stroke-width="2" fill="#fff"/><use xlink:href="#i" transform="matrix(1,0,0,1,552,140) translate(44.55 42.8)"/><use xlink:href="#j" transform="matrix(1,0,0,1,552,140) translate(39.074999999999996 64.4)"/><path d="M373.47 270h84.27c2.76 0 5-2.24 5-5v-70c0-2.76 2.23-5 5-5H552" stroke="#999" stroke-width="2" fill="none"/><path d="M373.47 271h-.34l.28-1.7-.24-.3h.3zM552 190l-14.27 4.64v-9.28z" fill="#999"/><path d="M554.73 189.84l-.06.34-17.94 5.83v-12zm-16 3.42l10.03-3.26-10.03-3.26z" fill="#999"/><path fill="#fff" d="M451.26 219.2h22.96v21.6h-22.96z"/><use xlink:href="#k" transform="matrix(1,0,0,1,451.2613796664,219.2) translate(0 14.4)"/><path d="M296 318.54v60.8" stroke="#999" stroke-width="2" fill="none"/><path d="M296.26 318.44l.74-.1v.2h-2v-.2zM296 379.33l-4.64-14.26h9.28z" fill="#999"/><path d="M296.83 380h-1.66L290 364.07h12zm-4.1-13.93L296 376.1l3.26-10.03z" fill="#999"/><path fill="#fff" d="M281.32 338.13h29.36v21.6h-29.36z"/><use xlink:href="#l" transform="matrix(1,0,0,1,281.325,338.13443361960407) translate(0 14.4)"/><path d="M291.76 522.65c2.34-1.46 6.14-1.46 8.48 0l71.52 44.7c2.34 1.46 2.34 3.84 0 5.3l-71.52 44.7c-2.34 1.46-6.14 1.46-8.48 0l-71.52-44.7c-2.34-1.46-2.34-3.84 0-5.3z" stroke="#666" stroke-width="2" fill="#fff"/><use xlink:href="#m" transform="matrix(1,0,0,1,216,520) translate(60.025 42.8)"/><use xlink:href="#n" transform="matrix(1,0,0,1,216,520) translate(47.15 64.4)"/><path d="M296 460v60.62" stroke="#999" stroke-width="2" fill="none"/><path d="M296 520.62l-4.64-14.26h9.28z" fill="#999"/><path d="M296.72 521.64l-.98-.08-.47.06-5.28-16.26h12zm-3.98-14.28L296 517.4l3.26-10.04z" fill="#999"/><path d="M373.3 570h78.1c2.75 0 5-2.24 5-5V270" stroke="#999" stroke-width="2" fill="none"/><path d="M373.3 571h-.17l.17-1zm0-1.84l-.14-.16h.14z" fill="#999"/><path d="M456.4 270l4.63 14.27h-9.27z" stroke="#999" stroke-width="2" fill="#999"/><path fill="#fff" d="M444.92 450.75h22.96v21.6h-22.96z"/><use xlink:href="#k" transform="matrix(1,0,0,1,444.9169040664493,450.74815845689017) translate(0 14.4)"/><path d="M904 150c17.67 0 32 17.9 32 40s-14.33 40-32 40h-96c-17.67 0-32-17.9-32-40s14.33-40 32-40z" stroke="#666" stroke-width="2" fill="#ff8f80"/><use xlink:href="#o" transform="matrix(1,0,0,1,776,150) translate(26.625 43.6)"/><use xlink:href="#p" transform="matrix(1,0,0,1,776,150) translate(89.42500000000001 43.6)"/><path d="M709.47 190H776" stroke="#999" stroke-width="2" fill="none"/><path d="M709.47 191h-.34l.28-1.7-.24-.3h.3zM776 190l-14.27 4.64v-9.28z" fill="#999"/><path d="M776.06 188.97L776 190l.04 1.04-15.3 4.97v-12zm-13.33 4.3l10.03-3.27-10.03-3.26z" fill="#999"/><path fill="#fff" d="M731.26 179.2h22.96v21.6h-22.96z"/><use xlink:href="#k" transform="matrix(1,0,0,1,731.2613796664,179.2) translate(0 14.4)"/><path d="M291.76 682.65c2.34-1.46 6.14-1.46 8.48 0l71.52 44.7c2.34 1.46 2.34 3.84 0 5.3l-71.52 44.7c-2.34 1.46-6.14 1.46-8.48 0l-71.52-44.7c-2.34-1.46-2.34-3.84 0-5.3z" stroke="#666" stroke-width="2" fill="#fff"/><use xlink:href="#q" transform="matrix(1,0,0,1,216,680) translate(37.55 42.8)"/><use xlink:href="#r" transform="matrix(1,0,0,1,216,680) translate(48.599999999999994 64.4)"/><path d="M296 618.42v62.15" stroke="#999" stroke-width="2" fill="none"/><path d="M296 618.42h-1v-.08zm1 0h-.58l.58-.08zM296 680.57l-4.64-14.26h9.28z" fill="#999"/><path d="M296.7 681.64l-.96-.08-.45.06-5.3-16.3h12zm-3.96-14.33l3.26 10.04 3.26-10.03z" fill="#999"/><path fill="#fff" d="M281.32 638.7h29.36v21.6h-29.36z"/><use xlink:href="#l" transform="matrix(1,0,0,1,281.325,638.698132616152) translate(0 14.4)"/><path d="M344 840c17.67 0 32 17.9 32 40s-14.33 40-32 40h-96c-17.67 0-32-17.9-32-40s14.33-40 32-40z" stroke="#666" stroke-width="2" fill="#a3d977"/><use xlink:href="#o" transform="matrix(1,0,0,1,216,840) translate(12.125 43.6)"/><use xlink:href="#s" transform="matrix(1,0,0,1,216,840) translate(74.92500000000001 43.6)"/><path d="M296 778.42V840" stroke="#999" stroke-width="2" fill="none"/><path d="M296 778.42h-1v-.08zm1 0h-.58l.58-.08zM296 840l-4.64-14.27h9.28z" fill="#999"/><path d="M297.05 840h-2.1L290 824.73h12zm-4.3-13.27l3.25 10.03 3.26-10.03z" fill="#999"/><path fill="#fff" d="M281.32 798.4h29.36V820h-29.36z"/><use xlink:href="#l" transform="matrix(1,0,0,1,281.325,798.4108070339341) translate(0 14.4)"/><path d="M560 690c17.67 0 32 17.9 32 40s-14.33 40-32 40h-96c-17.67 0-32-17.9-32-40s14.33-40 32-40z" stroke="#666" stroke-width="2" fill="#ff8f80"/><use xlink:href="#o" transform="matrix(1,0,0,1,432,690) translate(26.625 43.6)"/><use xlink:href="#p" transform="matrix(1,0,0,1,432,690) translate(89.42500000000001 43.6)"/><path d="M373.3 730H432" stroke="#999" stroke-width="2" fill="none"/><path d="M373.3 731h-.17l.17-1zm0-1.84l-.14-.16h.14zM432 730l-14.27 4.64v-9.28z" fill="#999"/><path d="M432.06 728.97L432 730l.04 1.04-15.3 4.97v-12zm-13.33 4.3l10.03-3.27-10.03-3.26z" fill="#999"/><path fill="#fff" d="M391.17 719.2h22.96v21.6h-22.96z"/><use xlink:href="#k" transform="matrix(1,0,0,1,391.17279357633447,719.2) translate(0 14.4)"/><path d="M627.76 342.65c2.34-1.46 6.14-1.46 8.48 0l71.52 44.7c2.34 1.46 2.34 3.84 0 5.3l-71.52 44.7c-2.34 1.46-6.14 1.46-8.48 0l-71.52-44.7c-2.34-1.46-2.34-3.84 0-5.3z" stroke="#666" stroke-width="2" fill="#fff"/><use xlink:href="#t" transform="matrix(1,0,0,1,552,340) translate(44.55 42.8)"/><use xlink:href="#u" transform="matrix(1,0,0,1,552,340) translate(16.224999999999994 64.4)"/><path d="M632 238.42v103.16" stroke="#999" stroke-width="2" fill="none"/><path d="M632 238.42h-1v-.08zm1 0h-.58l.58-.08zM632 341.58l-4.64-14.27h9.28z" fill="#999"/><path d="M633.02 341.67l-1.28-.1-.76.1-5-15.36h12.03zm-4.28-13.36l3.26 10.04 3.26-10.03z" fill="#999"/><path fill="#fff" d="M617.33 279.2h29.36v21.6h-29.37z"/><use xlink:href="#l" transform="matrix(1,0,0,1,617.325,279.2) translate(0 14.4)"/><path d="M552 841.8c0-2.76 2.24-5 5-5h150c2.76 0 5 2.24 5 5V935c0 2.76-2.24 5-5 5H557c-2.76 0-5-2.24-5-5z" stroke="#666" stroke-width="2" fill="#fff"/><use xlink:href="#a" transform="matrix(1,0,0,1,552,836.8) translate(15.625 23.19999999999999)"/><use xlink:href="#b" transform="matrix(1,0,0,1,552,836.8) translate(78.47500000000001 23.19999999999999)"/><use xlink:href="#v" transform="matrix(1,0,0,1,552,836.8) translate(123.42500000000001 23.19999999999999)"/><use xlink:href="#w" transform="matrix(1,0,0,1,552,836.8) translate(12.574999999999989 44.79999999999999)"/><use xlink:href="#x" transform="matrix(1,0,0,1,552,836.8) translate(88.475 44.79999999999999)"/><use xlink:href="#d" transform="matrix(1,0,0,1,552,836.8) translate(44.55 66.39999999999999)"/><use xlink:href="#e" transform="matrix(1,0,0,1,552,836.8) translate(34.599999999999994 88)"/><path d="M632 438.42V835.5" stroke="#999" stroke-width="2" fill="none"/><path d="M632 438.42h-1v-.08zm1 0h-.58l.58-.08zM632 835.5l-4.64-14.26h9.28z" fill="#999"/><path d="M632.63 836.8h-1.26L626 820.24h12zm-3.9-14.56l3.27 10.03 3.26-10.03z" fill="#999"/><path fill="#fff" d="M602.05 626.17h59.9v21.6h-59.9z"/><use xlink:href="#y" transform="matrix(1,0,0,1,602.05,626.165807033934) translate(0 14.4)"/><path d="M632 940v60" stroke="#999" stroke-width="2" fill="none"/><path d="M632 1000l-4.64-14.27h9.28z" fill="#999"/><path d="M632.52 1001.62l-.78-.06-.27.03-5.48-16.87h12zm-3.78-14.9l3.26 10.04 3.26-10.03z" fill="#999"/><path fill="#fff" d="M616.5 959.2h31v21.6h-31z"/><use xlink:href="#z" transform="matrix(1,0,0,1,616.5,959.2) translate(0.005000000000000782 14.4)"/><path d="M776 465c0-2.76 2.24-5 5-5h150c2.76 0 5 2.24 5 5v93.2c0 2.76-2.24 5-5 5H781c-2.76 0-5-2.24-5-5z" stroke="#666" stroke-width="2" fill="#fff"/><use xlink:href="#A" transform="matrix(1,0,0,1,776,460.00000000000006) translate(3.799999999999983 23.19999999999999)"/><use xlink:href="#B" transform="matrix(1,0,0,1,776,460.00000000000006) translate(64.69999999999999 23.19999999999999)"/><use xlink:href="#C" transform="matrix(1,0,0,1,776,460.00000000000006) translate(116.25 23.19999999999999)"/><use xlink:href="#D" transform="matrix(1,0,0,1,776,460.00000000000006) translate(19.150000000000006 44.79999999999999)"/><use xlink:href="#E" transform="matrix(1,0,0,1,776,460.00000000000006) translate(60.050000000000004 44.79999999999999)"/><use xlink:href="#F" transform="matrix(1,0,0,1,776,460.00000000000006) translate(108 44.79999999999999)"/><use xlink:href="#G" transform="matrix(1,0,0,1,776,460.00000000000006) translate(26.799999999999997 66.39999999999999)"/><use xlink:href="#H" transform="matrix(1,0,0,1,776,460.00000000000006) translate(84.7 66.39999999999999)"/><use xlink:href="#I" transform="matrix(1,0,0,1,776,460.00000000000006) translate(48.074999999999996 88)"/><path d="M709.3 390H851c2.76 0 5 2.24 5 5v65" stroke="#999" stroke-width="2" fill="none"/><path d="M709.3 391h-.17l.17-1zm0-1.84l-.14-.16h.14zM856 460l-4.64-14.27h9.28z" fill="#999"/><path d="M857.05 460h-2.1L850 444.73h12zm-4.3-13.27l3.25 10.03 3.26-10.03z" fill="#999"/><path fill="#fff" d="M794.17 379.2h46.96v21.6h-46.96z"/><use xlink:href="#J" transform="matrix(1,0,0,1,794.1727935763345,379.2) translate(0 14.4)"/><path d="M904 620c17.67 0 32 17.9 32 40s-14.33 40-32 40h-96c-17.67 0-32-17.9-32-40s14.33-40 32-40z" stroke="#666" stroke-width="2" fill="#a3d977"/><use xlink:href="#o" transform="matrix(1,0,0,1,776,620) translate(12.125 43.6)"/><use xlink:href="#s" transform="matrix(1,0,0,1,776,620) translate(74.92500000000001 43.6)"/><path d="M856 563.2V620" stroke="#999" stroke-width="2" fill="none"/><path d="M856 620l-4.64-14.27h9.28z" fill="#999"/><path d="M857.05 620h-2.1L850 604.73h12zm-4.3-13.27l3.25 10.03 3.26-10.03z" fill="#999"/><path d="M627.76 1002.65c2.34-1.46 6.14-1.46 8.48 0l71.52 44.7c2.34 1.46 2.34 3.84 0 5.3l-71.52 44.7c-2.34 1.46-6.14 1.46-8.48 0l-71.52-44.7c-2.34-1.46-2.34-3.84 0-5.3z" stroke="#666" stroke-width="2" fill="#fff"/><use xlink:href="#K" transform="matrix(1,0,0,1,552,1000) translate(24.674999999999997 53.6)"/><use xlink:href="#n" transform="matrix(1,0,0,1,552,1000) translate(69.625 53.6)"/><path d="M680 1160c17.67 0 32 17.9 32 40s-14.33 40-32 40h-96c-17.67 0-32-17.9-32-40s14.33-40 32-40z" stroke="#666" stroke-width="2" fill="#a3d977"/><g><use xlink:href="#o" transform="matrix(1,0,0,1,552,1160) translate(12.125 43.6)"/><use xlink:href="#s" transform="matrix(1,0,0,1,552,1160) translate(74.92500000000001 43.6)"/></g><path d="M632 1098.42V1159" stroke="#999" stroke-width="2" fill="none"/><path d="M632 1098.42h-1v-.08zm1 0h-.58l.58-.08zM632 1159l-4.64-14.27h9.28z" fill="#999"/><path d="M632.73 1160h-1.46l-5.28-16.27h12zm-4-14.27l3.27 10.03 3.26-10.03z" fill="#999"/><path fill="#fff" d="M617.33 1117.9h29.36v21.6h-29.37z"/><g><use xlink:href="#l" transform="matrix(1,0,0,1,617.325,1117.9108070339341) translate(0 14.4)"/></g><path d="M904 1010c17.67 0 32 17.9 32 40s-14.33 40-32 40h-96c-17.67 0-32-17.9-32-40s14.33-40 32-40z" stroke="#666" stroke-width="2" fill="#ff8f80"/><g><use xlink:href="#o" transform="matrix(1,0,0,1,776,1010) translate(26.625 43.6)"/><use xlink:href="#p" transform="matrix(1,0,0,1,776,1010) translate(89.42500000000001 43.6)"/></g><path d="M709.3 1050H775" stroke="#999" stroke-width="2" fill="none"/><path d="M709.3 1051h-.17l.17-1zm0-1.84l-.14-.16h.14zM775 1050l-14.27 4.64v-9.28z" fill="#999"/><path d="M776.04 1049.3l-.04.7.03.72-16.3 5.3v-12.03zm-14.3 3.96l10.02-3.26-10.03-3.26z" fill="#999"/><path fill="#fff" d="M730.67 1039.2h22.96v21.6h-22.96z"/><g><use xlink:href="#k" transform="matrix(1,0,0,1,730.6724822260543,1039.2) translate(0 14.4)"/></g><path d="M45 260c-2.76 0-5 2.24-5 5v650c0 2.76 2.24 5 5 5h150c2.76 0 5-2.24 5-5V265c0-2.76-2.24-5-5-5z" fill="none"/><path d="M200 920c-22.78 0-41.25-18.47-41.25-41.25v-247.5c0-22.78-18.47-41.25-41.25-41.25 22.78 0 41.25-18.47 41.25-41.25v-247.5c0-22.78 18.47-41.25 41.25-41.25" stroke="#666" stroke-width="2" fill="none"/><g><use xlink:href="#L" transform="matrix(1,0,0,1,45,264.99999999999994) translate(-5.475000000000001 317.79999999999995)"/><use xlink:href="#M" transform="matrix(1,0,0,1,45,264.99999999999994) translate(6 339.4)"/></g><path d="M985 150c-2.76 0-5 2.24-5 5v140c0 2.76 2.24 5 5 5h110c2.76 0 5-2.24 5-5V155c0-2.76-2.24-5-5-5z" fill="none"/><path d="M980 300c5.18 0 9.38-4.2 9.38-9.38v-56.25c0-5.17 4.2-9.37 9.37-9.37-5.18 0-9.38-4.2-9.38-9.38v-56.25c0-5.17-4.2-9.37-9.37-9.37" stroke="#666" stroke-width="2" fill="none"/><g><use xlink:href="#N" transform="matrix(1,0,0,1,1013.125,155) translate(12.024999999999999 73.60000000000001)"/><use xlink:href="#O" transform="matrix(1,0,0,1,1013.125,155) translate(54.975 73.60000000000001)"/></g><path d="M985 380c-2.76 0-5 2.24-5 5v310c0 2.76 2.24 5 5 5h110c2.76 0 5-2.24 5-5V385c0-2.76-2.24-5-5-5z" fill="none"/><path d="M980 700c11.05 0 20-8.95 20-20V560c0-11.05 8.95-20 20-20-11.05 0-20-8.95-20-20V400c0-11.05-8.95-20-20-20" stroke="#666" stroke-width="2" fill="none"/><g><use xlink:href="#P" transform="matrix(1,0,0,1,1045,385) translate(6.024999999999999 147.8)"/><use xlink:href="#Q" transform="matrix(1,0,0,1,1045,385) translate(17.5 169.4)"/></g><path d="M985 800c-2.76 0-5 2.24-5 5v430c0 2.76 2.24 5 5 5h150c2.76 0 5-2.24 5-5V805c0-2.76-2.24-5-5-5z" fill="none"/><path d="M980 1240c15.2 0 27.5-12.3 27.5-27.5v-165c0-15.2 12.3-27.5 27.5-27.5-15.2 0-27.5-12.3-27.5-27.5v-165c0-15.2-12.3-27.5-27.5-27.5" stroke="#666" stroke-width="2" fill="none"/><g><use xlink:href="#N" transform="matrix(1,0,0,1,1067.5,805) translate(5.024999999999999 218.6)"/><use xlink:href="#R" transform="matrix(1,0,0,1,1067.5,805) translate(47.975 218.6)"/></g><defs><path fill="#333" d="M24 0v-248h52v208h133V0H24" id="S"/><path fill="#333" d="M110-194c64 0 96 36 96 99 0 64-35 99-97 99-61 0-95-36-95-99 0-62 34-99 96-99zm-1 164c35 0 45-28 45-65 0-40-10-65-43-65-34 0-45 26-45 65 0 36 10 65 43 65" id="T"/><path fill="#333" d="M190-63c-7 42-38 67-86 67-59 0-84-38-90-98-12-110 154-137 174-36l-49 2c-2-19-15-32-35-32-30 0-35 28-38 64-6 74 65 87 74 30" id="U"/><path fill="#333" d="M133-34C117-15 103 5 69 4 32 3 11-16 11-54c-1-60 55-63 116-61 1-26-3-47-28-47-18 1-26 9-28 27l-52-2c7-38 36-58 82-57s74 22 75 68l1 82c-1 14 12 18 25 15v27c-30 8-71 5-69-32zm-48 3c29 0 43-24 42-57-32 0-66-3-65 30 0 17 8 27 23 27" id="V"/><path fill="#333" d="M115-3C79 11 28 4 28-45v-112H4v-33h27l15-45h31v45h36v33H77v99c-1 23 16 31 38 25v30" id="W"/><path fill="#333" d="M185-48c-13 30-37 53-82 52C43 2 14-33 14-96s30-98 90-98c62 0 83 45 84 108H66c0 31 8 55 39 56 18 0 30-7 34-22zm-45-69c5-46-57-63-70-21-2 6-4 13-4 21h74" id="X"/><g id="a"><use transform="matrix(0.05,0,0,0.05,0,0)" xlink:href="#S"/><use transform="matrix(0.05,0,0,0.05,10.950000000000001,0)" xlink:href="#T"/><use transform="matrix(0.05,0,0,0.05,21.900000000000002,0)" xlink:href="#U"/><use transform="matrix(0.05,0,0,0.05,31.900000000000002,0)" xlink:href="#V"/><use transform="matrix(0.05,0,0,0.05,41.900000000000006,0)" xlink:href="#W"/><use transform="matrix(0.05,0,0,0.05,47.85000000000001,0)" xlink:href="#X"/></g><path fill="#333" d="M238-95c0 69-44 99-111 99C63 4 22-25 22-93v-155h51v151c-1 38 19 59 55 60 90 1 49-130 58-211h52v153" id="Y"/><path fill="#333" d="M137-138c1-29-70-34-71-4 15 46 118 7 119 86 1 83-164 76-172 9l43-7c4 19 20 25 44 25 33 8 57-30 24-41C81-84 22-81 20-136c-2-80 154-74 161-7" id="Z"/><path fill="#333" d="M135-150c-39-12-60 13-60 57V0H25l-1-190h47c2 13-1 29 3 40 6-28 27-53 61-41v41" id="aa"/><g id="b"><use transform="matrix(0.05,0,0,0.05,0,0)" xlink:href="#Y"/><use transform="matrix(0.05,0,0,0.05,12.950000000000001,0)" xlink:href="#Z"/><use transform="matrix(0.05,0,0,0.05,22.950000000000003,0)" xlink:href="#X"/><use transform="matrix(0.05,0,0,0.05,32.95,0)" xlink:href="#aa"/></g><path fill="#333" d="M25-224v-37h50v37H25zM25 0v-190h50V0H25" id="ab"/><path fill="#333" d="M135-194c87-1 58 113 63 194h-50c-7-57 23-157-34-157-59 0-34 97-39 157H25l-1-190h47c2 12-1 28 3 38 12-26 28-41 61-42" id="ac"/><g id="c"><use transform="matrix(0.05,0,0,0.05,0,0)" xlink:href="#ab"/><use transform="matrix(0.05,0,0,0.05,5,0)" xlink:href="#ac"/></g><path fill="#333" d="M169-182c-1-43-94-46-97-3 18 66 151 10 154 114 3 95-165 93-204 36-6-8-10-19-12-30l50-8c3 46 112 56 116 5-17-69-150-10-154-114-4-87 153-88 188-35 5 8 8 18 10 28" id="ad"/><path fill="#333" d="M85 4C-2 5 27-109 22-190h50c7 57-23 150 33 157 60-5 35-97 40-157h50l1 190h-47c-2-12 1-28-3-38-12 25-28 42-61 42" id="ae"/><path fill="#333" d="M123 10C108 53 80 86 19 72V37c35 8 53-11 59-39L3-190h52l48 148c12-52 28-100 44-148h51" id="af"/><g id="d"><use transform="matrix(0.05,0,0,0.05,0,0)" xlink:href="#ad"/><use transform="matrix(0.05,0,0,0.05,12,0)" xlink:href="#X"/><use transform="matrix(0.05,0,0,0.05,22,0)" xlink:href="#U"/><use transform="matrix(0.05,0,0,0.05,32,0)" xlink:href="#ae"/><use transform="matrix(0.05,0,0,0.05,42.95,0)" xlink:href="#aa"/><use transform="matrix(0.05,0,0,0.05,49.95,0)" xlink:href="#ab"/><use transform="matrix(0.05,0,0,0.05,54.95,0)" xlink:href="#W"/><use transform="matrix(0.05,0,0,0.05,60.900000000000006,0)" xlink:href="#af"/></g><path fill="#333" d="M24-248c120-7 223 5 221 122C244-46 201 0 124 0H24v-248zM76-40c74 7 117-18 117-86 0-67-45-88-117-82v168" id="ag"/><path fill="#333" d="M135-194c52 0 70 43 70 98 0 56-19 99-73 100-30 1-46-15-58-35L72 0H24l1-261h50v104c11-23 29-37 60-37zM114-30c31 0 40-27 40-66 0-37-7-63-39-63s-41 28-41 65c0 36 8 64 40 64" id="ah"/><path fill="#333" d="M110-251c83-7 118 89 53 130-17 10-36 21-38 46H78c2-56 65-53 71-103 2-21-15-35-38-34-25 1-41 14-44 38l-50-2c6-48 39-70 93-75zM77 0v-47h51V0H77" id="ai"/><g id="e"><use transform="matrix(0.05,0,0,0.05,0,0)" xlink:href="#ag"/><use transform="matrix(0.05,0,0,0.05,12.950000000000001,0)" xlink:href="#V"/><use transform="matrix(0.05,0,0,0.05,22.950000000000003,0)" xlink:href="#W"/><use transform="matrix(0.05,0,0,0.05,28.900000000000002,0)" xlink:href="#V"/><use transform="matrix(0.05,0,0,0.05,38.900000000000006,0)" xlink:href="#ah"/><use transform="matrix(0.05,0,0,0.05,49.85000000000001,0)" xlink:href="#V"/><use transform="matrix(0.05,0,0,0.05,59.85,0)" xlink:href="#Z"/><use transform="matrix(0.05,0,0,0.05,69.85000000000001,0)" xlink:href="#X"/><use transform="matrix(0.05,0,0,0.05,79.85000000000001,0)" xlink:href="#ai"/></g><path fill="#333" d="M24 0v-248h52V0H24" id="aj"/><path fill="#333" d="M25 0v-261h50V0H25" id="ak"/><g id="f"><use transform="matrix(0.05,0,0,0.05,0,0)" xlink:href="#aj"/><use transform="matrix(0.05,0,0,0.05,5,0)" xlink:href="#ac"/><use transform="matrix(0.05,0,0,0.05,15.950000000000001,0)" xlink:href="#W"/><use transform="matrix(0.05,0,0,0.05,21.900000000000002,0)" xlink:href="#X"/><use transform="matrix(0.05,0,0,0.05,31.900000000000002,0)" xlink:href="#aa"/><use transform="matrix(0.05,0,0,0.05,38.900000000000006,0)" xlink:href="#ac"/><use transform="matrix(0.05,0,0,0.05,49.85000000000001,0)" xlink:href="#V"/><use transform="matrix(0.05,0,0,0.05,59.85,0)" xlink:href="#ak"/></g><g id="g"><use transform="matrix(0.05,0,0,0.05,0,0)" xlink:href="#ad"/><use transform="matrix(0.05,0,0,0.05,12,0)" xlink:href="#X"/><use transform="matrix(0.05,0,0,0.05,22,0)" xlink:href="#U"/><use transform="matrix(0.05,0,0,0.05,32,0)" xlink:href="#ae"/><use transform="matrix(0.05,0,0,0.05,42.95,0)" xlink:href="#aa"/><use transform="matrix(0.05,0,0,0.05,49.95,0)" xlink:href="#ab"/><use transform="matrix(0.05,0,0,0.05,54.95,0)" xlink:href="#W"/><use transform="matrix(0.05,0,0,0.05,60.900000000000006,0)" xlink:href="#af"/><use transform="matrix(0.05,0,0,0.05,70.9,0)" xlink:href="#ai"/></g><path fill="#333" d="M195-6C206 82 75 100 31 46c-4-6-6-13-8-21l49-6c3 16 16 24 34 25 40 0 42-37 40-79-11 22-30 35-61 35-53 0-70-43-70-97 0-56 18-96 73-97 30 0 46 14 59 34l2-30h47zm-90-29c32 0 41-27 41-63 0-35-9-62-40-62-32 0-39 29-40 63 0 36 9 62 39 62" id="al"/><g id="h"><use transform="matrix(0.05,0,0,0.05,0,0)" xlink:href="#S"/><use transform="matrix(0.05,0,0,0.05,10.950000000000001,0)" xlink:href="#T"/><use transform="matrix(0.05,0,0,0.05,21.900000000000002,0)" xlink:href="#al"/><use transform="matrix(0.05,0,0,0.05,32.85,0)" xlink:href="#ab"/><use transform="matrix(0.05,0,0,0.05,37.85,0)" xlink:href="#ac"/></g><path fill="#333" d="M24 0v-248h195v40H76v63h132v40H76v65h150V0H24" id="am"/><path fill="#333" d="M144 0l-44-69L55 0H2l70-98-66-92h53l41 62 40-62h54l-67 91 71 99h-54" id="an"/><g id="i"><use transform="matrix(0.05,0,0,0.05,0,0)" xlink:href="#am"/><use transform="matrix(0.05,0,0,0.05,12,0)" xlink:href="#an"/><use transform="matrix(0.05,0,0,0.05,22,0)" xlink:href="#W"/><use transform="matrix(0.05,0,0,0.05,27.950000000000003,0)" xlink:href="#X"/><use transform="matrix(0.05,0,0,0.05,37.95,0)" xlink:href="#aa"/><use transform="matrix(0.05,0,0,0.05,44.95,0)" xlink:href="#ac"/><use transform="matrix(0.05,0,0,0.05,55.900000000000006,0)" xlink:href="#V"/><use transform="matrix(0.05,0,0,0.05,65.9,0)" xlink:href="#ak"/></g><g id="j"><use transform="matrix(0.05,0,0,0.05,0,0)" xlink:href="#ad"/><use transform="matrix(0.05,0,0,0.05,12,0)" xlink:href="#X"/><use transform="matrix(0.05,0,0,0.05,22,0)" xlink:href="#U"/><use transform="matrix(0.05,0,0,0.05,32,0)" xlink:href="#ae"/><use transform="matrix(0.05,0,0,0.05,42.95,0)" xlink:href="#aa"/><use transform="matrix(0.05,0,0,0.05,49.95,0)" xlink:href="#ab"/><use transform="matrix(0.05,0,0,0.05,54.95,0)" xlink:href="#W"/><use transform="matrix(0.05,0,0,0.05,60.900000000000006,0)" xlink:href="#af"/><use transform="matrix(0.05,0,0,0.05,70.9,0)" xlink:href="#ai"/></g><path d="M190 0L58-211 59 0H30v-248h39L202-35l-2-213h31V0h-41" id="ao"/><path d="M100-194c62-1 85 37 85 99 1 63-27 99-86 99S16-35 15-95c0-66 28-99 85-99zM99-20c44 1 53-31 53-75 0-43-8-75-51-75s-53 32-53 75 10 74 51 75" id="ap"/><g id="k"><use transform="matrix(0.05,0,0,0.05,0,0)" xlink:href="#ao"/><use transform="matrix(0.05,0,0,0.05,12.950000000000001,0)" xlink:href="#ap"/></g><path d="M137-103V0h-34v-103L8-248h37l75 118 75-118h37" id="aq"/><path d="M100-194c63 0 86 42 84 106H49c0 40 14 67 53 68 26 1 43-12 49-29l28 8c-11 28-37 45-77 45C44 4 14-33 15-96c1-61 26-98 85-98zm52 81c6-60-76-77-97-28-3 7-6 17-6 28h103" id="ar"/><path d="M135-143c-3-34-86-38-87 0 15 53 115 12 119 90S17 21 10-45l28-5c4 36 97 45 98 0-10-56-113-15-118-90-4-57 82-63 122-42 12 7 21 19 24 35" id="as"/><g id="l"><use transform="matrix(0.05,0,0,0.05,0,0)" xlink:href="#aq"/><use transform="matrix(0.05,0,0,0.05,10.35,0)" xlink:href="#ar"/><use transform="matrix(0.05,0,0,0.05,20.35,0)" xlink:href="#as"/></g><g id="m"><use transform="matrix(0.05,0,0,0.05,0,0)" xlink:href="#Y"/><use transform="matrix(0.05,0,0,0.05,12.950000000000001,0)" xlink:href="#Z"/><use transform="matrix(0.05,0,0,0.05,22.950000000000003,0)" xlink:href="#X"/><use transform="matrix(0.05,0,0,0.05,32.95,0)" xlink:href="#aa"/></g><path fill="#333" d="M76-208v77h127v40H76V0H24v-248h183v40H76" id="at"/><path fill="#333" d="M88-194c31-1 46 15 58 34l-1-101h50l1 261h-48c-2-10 0-23-3-31C134-8 116 4 84 4 32 4 16-41 15-95c0-56 19-97 73-99zm17 164c33 0 40-30 41-66 1-37-9-64-41-64s-38 30-39 65c0 43 13 65 39 65" id="au"/><g id="n"><use transform="matrix(0.05,0,0,0.05,0,0)" xlink:href="#at"/><use transform="matrix(0.05,0,0,0.05,10.950000000000001,0)" xlink:href="#T"/><use transform="matrix(0.05,0,0,0.05,21.900000000000002,0)" xlink:href="#ae"/><use transform="matrix(0.05,0,0,0.05,32.85,0)" xlink:href="#ac"/><use transform="matrix(0.05,0,0,0.05,43.800000000000004,0)" xlink:href="#au"/><use transform="matrix(0.05,0,0,0.05,54.75,0)" xlink:href="#ai"/></g><path fill="#333" d="M240-174c0 40-23 61-54 70L253 0h-59l-57-94H76V0H24v-248c93 4 217-23 216 74zM76-134c48-2 112 12 112-38 0-48-66-32-112-35v73" id="av"/><g id="o"><use transform="matrix(0.05,0,0,0.05,0,0)" xlink:href="#av"/><use transform="matrix(0.05,0,0,0.05,12.950000000000001,0)" xlink:href="#X"/><use transform="matrix(0.05,0,0,0.05,22.950000000000003,0)" xlink:href="#W"/><use transform="matrix(0.05,0,0,0.05,28.900000000000002,0)" xlink:href="#ae"/><use transform="matrix(0.05,0,0,0.05,39.85,0)" xlink:href="#aa"/><use transform="matrix(0.05,0,0,0.05,46.85,0)" xlink:href="#ac"/></g><g id="p"><use transform="matrix(0.05,0,0,0.05,0,0)" xlink:href="#am"/><use transform="matrix(0.05,0,0,0.05,12,0)" xlink:href="#aa"/><use transform="matrix(0.05,0,0,0.05,19,0)" xlink:href="#aa"/><use transform="matrix(0.05,0,0,0.05,26,0)" xlink:href="#T"/><use transform="matrix(0.05,0,0,0.05,36.95,0)" xlink:href="#aa"/></g><path fill="#333" d="M24-248c93 1 206-16 204 79-1 75-69 88-152 82V0H24v-248zm52 121c47 0 100 7 100-41 0-47-54-39-100-39v80" id="aw"/><path fill="#333" d="M231 0h-52l-39-155L100 0H48L-1-190h46L77-45c9-52 24-97 36-145h53l37 145 32-145h46" id="ax"/><g id="q"><use transform="matrix(0.05,0,0,0.05,0,0)" xlink:href="#aw"/><use transform="matrix(0.05,0,0,0.05,12,0)" xlink:href="#V"/><use transform="matrix(0.05,0,0,0.05,22,0)" xlink:href="#Z"/><use transform="matrix(0.05,0,0,0.05,32,0)" xlink:href="#Z"/><use transform="matrix(0.05,0,0,0.05,42,0)" xlink:href="#ax"/><use transform="matrix(0.05,0,0,0.05,56,0)" xlink:href="#T"/><use transform="matrix(0.05,0,0,0.05,66.95,0)" xlink:href="#aa"/><use transform="matrix(0.05,0,0,0.05,73.95,0)" xlink:href="#au"/></g><path fill="#333" d="M230 0l2-204L168 0h-37L68-204 70 0H24v-248h70l56 185 57-185h69V0h-46" id="ay"/><path fill="#333" d="M114-157C55-157 80-60 75 0H25v-261h50l-1 109c12-26 28-41 61-42 86-1 58 113 63 194h-50c-7-57 23-157-34-157" id="az"/><g id="r"><use transform="matrix(0.05,0,0,0.05,0,0)" xlink:href="#ay"/><use transform="matrix(0.05,0,0,0.05,14.950000000000001,0)" xlink:href="#V"/><use transform="matrix(0.05,0,0,0.05,24.950000000000003,0)" xlink:href="#W"/><use transform="matrix(0.05,0,0,0.05,30.900000000000002,0)" xlink:href="#U"/><use transform="matrix(0.05,0,0,0.05,40.900000000000006,0)" xlink:href="#az"/><use transform="matrix(0.05,0,0,0.05,51.85,0)" xlink:href="#ai"/></g><g id="s"><use transform="matrix(0.05,0,0,0.05,0,0)" xlink:href="#ad"/><use transform="matrix(0.05,0,0,0.05,12,0)" xlink:href="#ae"/><use transform="matrix(0.05,0,0,0.05,22.950000000000003,0)" xlink:href="#U"/><use transform="matrix(0.05,0,0,0.05,32.95,0)" xlink:href="#U"/><use transform="matrix(0.05,0,0,0.05,42.95,0)" xlink:href="#X"/><use transform="matrix(0.05,0,0,0.05,52.95,0)" xlink:href="#Z"/><use transform="matrix(0.05,0,0,0.05,62.95,0)" xlink:href="#Z"/></g><g id="t"><use transform="matrix(0.05,0,0,0.05,0,0)" xlink:href="#am"/><use transform="matrix(0.05,0,0,0.05,12,0)" xlink:href="#an"/><use transform="matrix(0.05,0,0,0.05,22,0)" xlink:href="#W"/><use transform="matrix(0.05,0,0,0.05,27.950000000000003,0)" xlink:href="#X"/><use transform="matrix(0.05,0,0,0.05,37.95,0)" xlink:href="#aa"/><use transform="matrix(0.05,0,0,0.05,44.95,0)" xlink:href="#ac"/><use transform="matrix(0.05,0,0,0.05,55.900000000000006,0)" xlink:href="#V"/><use transform="matrix(0.05,0,0,0.05,65.9,0)" xlink:href="#ak"/></g><path fill="#333" d="M199 0l-22-63H83L61 0H9l90-248h61L250 0h-51zm-33-102l-36-108c-10 38-24 72-36 108h72" id="aA"/><g id="u"><use transform="matrix(0.05,0,0,0.05,0,0)" xlink:href="#aA"/><use transform="matrix(0.05,0,0,0.05,12.950000000000001,0)" xlink:href="#ae"/><use transform="matrix(0.05,0,0,0.05,23.900000000000002,0)" xlink:href="#W"/><use transform="matrix(0.05,0,0,0.05,29.85,0)" xlink:href="#az"/><use transform="matrix(0.05,0,0,0.05,40.800000000000004,0)" xlink:href="#T"/><use transform="matrix(0.05,0,0,0.05,51.75,0)" xlink:href="#aa"/><use transform="matrix(0.05,0,0,0.05,58.75,0)" xlink:href="#ab"/><use transform="matrix(0.05,0,0,0.05,63.75,0)" xlink:href="#Z"/><use transform="matrix(0.05,0,0,0.05,73.75,0)" xlink:href="#V"/><use transform="matrix(0.05,0,0,0.05,83.75,0)" xlink:href="#W"/><use transform="matrix(0.05,0,0,0.05,89.7,0)" xlink:href="#ab"/><use transform="matrix(0.05,0,0,0.05,94.7,0)" xlink:href="#T"/><use transform="matrix(0.05,0,0,0.05,105.65,0)" xlink:href="#ac"/><use transform="matrix(0.05,0,0,0.05,116.60000000000001,0)" xlink:href="#ai"/></g><g id="v"><use transform="matrix(0.05,0,0,0.05,0,0)" xlink:href="#ah"/><use transform="matrix(0.05,0,0,0.05,10.950000000000001,0)" xlink:href="#af"/></g><g id="w"><use transform="matrix(0.05,0,0,0.05,0,0)" xlink:href="#am"/><use transform="matrix(0.05,0,0,0.05,12,0)" xlink:href="#an"/><use transform="matrix(0.05,0,0,0.05,22,0)" xlink:href="#W"/><use transform="matrix(0.05,0,0,0.05,27.950000000000003,0)" xlink:href="#X"/><use transform="matrix(0.05,0,0,0.05,37.95,0)" xlink:href="#aa"/><use transform="matrix(0.05,0,0,0.05,44.95,0)" xlink:href="#ac"/><use transform="matrix(0.05,0,0,0.05,55.900000000000006,0)" xlink:href="#V"/><use transform="matrix(0.05,0,0,0.05,65.9,0)" xlink:href="#ak"/></g><path fill="#333" d="M175 0L67-191c6 58 2 128 3 191H24v-248h59L193-55c-6-58-2-129-3-193h46V0h-61" id="aB"/><path fill="#333" d="M220-157c-53 9-28 100-34 157h-49v-107c1-27-5-49-29-50C55-147 81-57 75 0H25l-1-190h47c2 12-1 28 3 38 10-53 101-56 108 0 13-22 24-43 59-42 82 1 51 116 57 194h-49v-107c-1-25-5-48-29-50" id="aC"/><g id="x"><use transform="matrix(0.05,0,0,0.05,0,0)" xlink:href="#aB"/><use transform="matrix(0.05,0,0,0.05,12.950000000000001,0)" xlink:href="#V"/><use transform="matrix(0.05,0,0,0.05,22.950000000000003,0)" xlink:href="#aC"/><use transform="matrix(0.05,0,0,0.05,38.95,0)" xlink:href="#X"/><use transform="matrix(0.05,0,0,0.05,48.95,0)" xlink:href="#Z"/></g><path d="M33 0v-248h34V0H33" id="aD"/><path d="M117-194c89-4 53 116 60 194h-32v-121c0-31-8-49-39-48C34-167 62-67 57 0H25l-1-190h30c1 10-1 24 2 32 11-22 29-35 61-36" id="aE"/><path d="M59-47c-2 24 18 29 38 22v24C64 9 27 4 27-40v-127H5v-23h24l9-43h21v43h35v23H59v120" id="aF"/><path d="M114-163C36-179 61-72 57 0H25l-1-190h30c1 12-1 29 2 39 6-27 23-49 58-41v29" id="aG"/><path d="M141-36C126-15 110 5 73 4 37 3 15-17 15-53c-1-64 63-63 125-63 3-35-9-54-41-54-24 1-41 7-42 31l-33-3c5-37 33-52 76-52 45 0 72 20 72 64v82c-1 20 7 32 28 27v20c-31 9-61-2-59-35zM48-53c0 20 12 33 32 33 41-3 63-29 60-74-43 2-92-5-92 41" id="aH"/><path d="M24 0v-261h32V0H24" id="aI"/><g id="y"><use transform="matrix(0.05,0,0,0.05,0,0)" xlink:href="#aD"/><use transform="matrix(0.05,0,0,0.05,5,0)" xlink:href="#aE"/><use transform="matrix(0.05,0,0,0.05,15,0)" xlink:href="#aF"/><use transform="matrix(0.05,0,0,0.05,20,0)" xlink:href="#ar"/><use transform="matrix(0.05,0,0,0.05,30,0)" xlink:href="#aG"/><use transform="matrix(0.05,0,0,0.05,35.95,0)" xlink:href="#aE"/><use transform="matrix(0.05,0,0,0.05,45.95,0)" xlink:href="#aH"/><use transform="matrix(0.05,0,0,0.05,55.95,0)" xlink:href="#aI"/></g><path fill="#333" d="M146-102V0H94v-102L6-248h54l60 105 60-105h54" id="aJ"/><g id="z"><use transform="matrix(0.05,0,0,0.05,0,0)" xlink:href="#aJ"/><use transform="matrix(0.05,0,0,0.05,11,0)" xlink:href="#X"/><use transform="matrix(0.05,0,0,0.05,21,0)" xlink:href="#Z"/></g><path fill="#333" d="M67-125c0 53 21 87 73 88 37 1 54-22 65-47l45 17C233-25 199 4 140 4 58 4 20-42 15-125 8-235 124-281 211-232c18 10 29 29 36 50l-46 12c-8-25-30-41-62-41-52 0-71 34-72 86" id="aK"/><g id="A"><use transform="matrix(0.05,0,0,0.05,0,0)" xlink:href="#aK"/><use transform="matrix(0.05,0,0,0.05,12.950000000000001,0)" xlink:href="#aa"/><use transform="matrix(0.05,0,0,0.05,19.950000000000003,0)" xlink:href="#X"/><use transform="matrix(0.05,0,0,0.05,29.950000000000003,0)" xlink:href="#V"/><use transform="matrix(0.05,0,0,0.05,39.95,0)" xlink:href="#W"/><use transform="matrix(0.05,0,0,0.05,45.900000000000006,0)" xlink:href="#X"/></g><path fill="#333" d="M136-208V0H84v-208H4v-40h212v40h-80" id="aL"/><path fill="#333" d="M135-194c53 0 70 44 70 98 0 56-19 98-73 100-31 1-45-17-59-34 3 33 2 69 2 105H25l-1-265h48c2 10 0 23 3 31 11-24 29-35 60-35zM114-30c33 0 39-31 40-66 0-38-9-64-40-64-56 0-55 130 0 130" id="aM"/><g id="B"><use transform="matrix(0.05,0,0,0.05,0,0)" xlink:href="#aL"/><use transform="matrix(0.05,0,0,0.05,9.600000000000001,0)" xlink:href="#X"/><use transform="matrix(0.05,0,0,0.05,19.6,0)" xlink:href="#aC"/><use transform="matrix(0.05,0,0,0.05,35.6,0)" xlink:href="#aM"/></g><g id="C"><use transform="matrix(0.05,0,0,0.05,0,0)" xlink:href="#Y"/><use transform="matrix(0.05,0,0,0.05,12.950000000000001,0)" xlink:href="#Z"/><use transform="matrix(0.05,0,0,0.05,22.950000000000003,0)" xlink:href="#X"/><use transform="matrix(0.05,0,0,0.05,32.95,0)" xlink:href="#aa"/></g><g id="D"><use transform="matrix(0.05,0,0,0.05,0,0)" xlink:href="#ax"/><use transform="matrix(0.05,0,0,0.05,14,0)" xlink:href="#ab"/><use transform="matrix(0.05,0,0,0.05,19,0)" xlink:href="#W"/><use transform="matrix(0.05,0,0,0.05,24.95,0)" xlink:href="#az"/></g><g id="E"><use transform="matrix(0.05,0,0,0.05,0,0)" xlink:href="#aa"/><use transform="matrix(0.05,0,0,0.05,7,0)" xlink:href="#T"/><use transform="matrix(0.05,0,0,0.05,17.950000000000003,0)" xlink:href="#ak"/><use transform="matrix(0.05,0,0,0.05,22.950000000000003,0)" xlink:href="#X"/><use transform="matrix(0.05,0,0,0.05,32.95,0)" xlink:href="#Z"/></g><g id="F"><use transform="matrix(0.05,0,0,0.05,0,0)" xlink:href="#W"/><use transform="matrix(0.05,0,0,0.05,5.95,0)" xlink:href="#az"/><use transform="matrix(0.05,0,0,0.05,16.900000000000002,0)" xlink:href="#V"/><use transform="matrix(0.05,0,0,0.05,26.900000000000002,0)" xlink:href="#W"/></g><g id="G"><use transform="matrix(0.05,0,0,0.05,0,0)" xlink:href="#aC"/><use transform="matrix(0.05,0,0,0.05,16,0)" xlink:href="#V"/><use transform="matrix(0.05,0,0,0.05,26,0)" xlink:href="#W"/><use transform="matrix(0.05,0,0,0.05,31.950000000000003,0)" xlink:href="#U"/><use transform="matrix(0.05,0,0,0.05,41.95,0)" xlink:href="#az"/></g><g id="H"><use transform="matrix(0.05,0,0,0.05,0,0)" xlink:href="#S"/><use transform="matrix(0.05,0,0,0.05,10.950000000000001,0)" xlink:href="#ag"/><use transform="matrix(0.05,0,0,0.05,23.900000000000002,0)" xlink:href="#aA"/><use transform="matrix(0.05,0,0,0.05,36.85,0)" xlink:href="#aw"/></g><path fill="#333" d="M67-125c0 54 23 88 75 88 28 0 53-7 68-21v-34h-60v-39h108v91C232-14 192 4 140 4 58 4 20-42 15-125 8-236 126-280 215-234c19 10 29 26 37 47l-47 15c-11-23-29-39-63-39-53 1-75 33-75 86" id="aN"/><g id="I"><use transform="matrix(0.05,0,0,0.05,0,0)" xlink:href="#aN"/><use transform="matrix(0.05,0,0,0.05,14,0)" xlink:href="#aa"/><use transform="matrix(0.05,0,0,0.05,21,0)" xlink:href="#T"/><use transform="matrix(0.05,0,0,0.05,31.950000000000003,0)" xlink:href="#ae"/><use transform="matrix(0.05,0,0,0.05,42.900000000000006,0)" xlink:href="#aM"/><use transform="matrix(0.05,0,0,0.05,53.85,0)" xlink:href="#Z"/></g><path d="M30 0v-248h33v221h125V0H30" id="aO"/><path d="M30-248c118-7 216 8 213 122C240-48 200 0 122 0H30v-248zM63-27c89 8 146-16 146-99s-60-101-146-95v194" id="aP"/><path d="M205 0l-28-72H64L36 0H1l101-248h38L239 0h-34zm-38-99l-47-123c-12 45-31 82-46 123h93" id="aQ"/><path d="M30-248c87 1 191-15 191 75 0 78-77 80-158 76V0H30v-248zm33 125c57 0 124 11 124-50 0-59-68-47-124-48v98" id="aR"/><g id="J"><use transform="matrix(0.05,0,0,0.05,0,0)" xlink:href="#aO"/><use transform="matrix(0.05,0,0,0.05,10,0)" xlink:href="#aP"/><use transform="matrix(0.05,0,0,0.05,22.950000000000003,0)" xlink:href="#aQ"/><use transform="matrix(0.05,0,0,0.05,34.95,0)" xlink:href="#aR"/></g><g id="K"><use transform="matrix(0.05,0,0,0.05,0,0)" xlink:href="#Y"/><use transform="matrix(0.05,0,0,0.05,12.950000000000001,0)" xlink:href="#Z"/><use transform="matrix(0.05,0,0,0.05,22.950000000000003,0)" xlink:href="#X"/><use transform="matrix(0.05,0,0,0.05,32.95,0)" xlink:href="#aa"/></g><path fill="#0c7cba" d="M190 0L58-211 59 0H30v-248h39L202-35l-2-213h31V0h-41" id="aS"/><path fill="#0c7cba" d="M100-194c62-1 85 37 85 99 1 63-27 99-86 99S16-35 15-95c0-66 28-99 85-99zM99-20c44 1 53-31 53-75 0-43-8-75-51-75s-53 32-53 75 10 74 51 75" id="aT"/><path fill="#0c7cba" d="M59-47c-2 24 18 29 38 22v24C64 9 27 4 27-40v-127H5v-23h24l9-43h21v43h35v23H59v120" id="aU"/><path fill="#0c7cba" d="M100-194c63 0 86 42 84 106H49c0 40 14 67 53 68 26 1 43-12 49-29l28 8c-11 28-37 45-77 45C44 4 14-33 15-96c1-61 26-98 85-98zm52 81c6-60-76-77-97-28-3 7-6 17-6 28h103" id="aV"/><g id="L"><use transform="matrix(0.05,0,0,0.05,0,0)" xlink:href="#aS"/><use transform="matrix(0.05,0,0,0.05,12.950000000000001,0)" xlink:href="#aT"/><use transform="matrix(0.05,0,0,0.05,22.950000000000003,0)" xlink:href="#aU"/><use transform="matrix(0.05,0,0,0.05,27.950000000000003,0)" xlink:href="#aV"/></g><path fill="#0c7cba" d="M27 0v-27h64v-190l-56 39v-29l58-41h29v221h61V0H27" id="aW"/><path fill="#0c7cba" d="M33 0v-38h34V0H33" id="aX"/><g id="M"><use transform="matrix(0.05,0,0,0.05,0,0)" xlink:href="#aW"/><use transform="matrix(0.05,0,0,0.05,10,0)" xlink:href="#aX"/></g><g id="N"><use transform="matrix(0.05,0,0,0.05,0,0)" xlink:href="#aS"/><use transform="matrix(0.05,0,0,0.05,12.950000000000001,0)" xlink:href="#aT"/><use transform="matrix(0.05,0,0,0.05,22.950000000000003,0)" xlink:href="#aU"/><use transform="matrix(0.05,0,0,0.05,27.950000000000003,0)" xlink:href="#aV"/></g><path fill="#0c7cba" d="M101-251c82-7 93 87 43 132L82-64C71-53 59-42 53-27h129V0H18c2-99 128-94 128-182 0-28-16-43-45-43s-46 15-49 41l-32-3c6-41 34-60 81-64" id="aY"/><g id="O"><use transform="matrix(0.05,0,0,0.05,0,0)" xlink:href="#aY"/><use transform="matrix(0.05,0,0,0.05,10,0)" xlink:href="#aX"/></g><g id="P"><use transform="matrix(0.05,0,0,0.05,0,0)" xlink:href="#aS"/><use transform="matrix(0.05,0,0,0.05,12.950000000000001,0)" xlink:href="#aT"/><use transform="matrix(0.05,0,0,0.05,22.950000000000003,0)" xlink:href="#aU"/><use transform="matrix(0.05,0,0,0.05,27.950000000000003,0)" xlink:href="#aV"/></g><path fill="#0c7cba" d="M126-127c33 6 58 20 58 59 0 88-139 92-164 29-3-8-5-16-6-25l32-3c6 27 21 44 54 44 32 0 52-15 52-46 0-38-36-46-79-43v-28c39 1 72-4 72-42 0-27-17-43-46-43-28 0-47 15-49 41l-32-3c6-42 35-63 81-64 48-1 79 21 79 65 0 36-21 52-52 59" id="aZ"/><g id="Q"><use transform="matrix(0.05,0,0,0.05,0,0)" xlink:href="#aZ"/><use transform="matrix(0.05,0,0,0.05,10,0)" xlink:href="#aX"/></g><path fill="#0c7cba" d="M155-56V0h-30v-56H8v-25l114-167h33v167h35v25h-35zm-30-156c-27 46-58 90-88 131h88v-131" id="ba"/><g id="R"><use transform="matrix(0.05,0,0,0.05,0,0)" xlink:href="#ba"/><use transform="matrix(0.05,0,0,0.05,10,0)" xlink:href="#aX"/></g></defs></g></svg>